Ripper ...........: IMAGiNE                                        IMDB Rating.......:7.7/10                            
Video Codec.......: XVID                                         Release Date......:18/12/09
Audio Codec.......:MP3                                           Theatre Date......:14/08/09
Audio Bitrate.....:128                                              Runtime.......:1h 41mn
Subtitles.........:NIL                                                 Language..........:ENGLISH
Resolution...... 640 x 300                                      IMDb URL..........:http://www.imdb.com/title/tt0765010//


DETAILS:


Video
ID                               : 0
Format                           : MPEG-4 Visual
Format profile                   : AdvancedSimple@L5
Format settings, BVOP            : Yes
Format settings, QPel            : No
Format settings, GMC             : No warppoints
Format settings, Matrix          : Default (MPEG)
Muxing mode                      : Packed bitstream
Codec ID                         : XVID
Codec ID/Hint                    : XviD
Duration                         : 1h 40mn
Bit rate                         : 1 502 Kbps
Width                            : 640 pixels
Height                           : 300 pixels
Display aspect ratio             : 2.2:1
Frame rate                       : 29.970 fps
Resolution                       : 24 bits
Colorimetry                      : 4:2:0
Scan type                        : Progressive
Bits/(Pixel*Frame)               : 0.261
Stream size                      : 1.06 GiB (91%)
Writing library                  : XviD 1.2.1 (UTC 2008-12-04)

Audio
ID                               : 1
Format                           : MPEG Audio
Codec ID                         : 55
Codec ID/Hint                    : MP3
Duration                         : 1h 40mn
Bit rate                         : 128 Kbps
Channel(s)                       : 2 channels
Sampling rate                    : 44.1 KHz
Stream size                      : 92.2 MiB (8%)
Alignment                        : Split accross interleaves
Interleave, duration             : 33 ms (1.00 video frame)
Interleave, preload duration     : 500 ms


NOTES:

IMAGiNE bringing you another release.....Brothers
Well we cleaned up the Video as much as we could, its the best out at the moment .. Thanks ExtraScene
Added our own pretty decent Audio to go with it . Definitely a very watchable release. We thought about waiting for a better
better source... but it seems the next source might very well be a screener ( we can only hope).